<?xml version="1.0" standalone="no"?>
<!DOCTYPE svg PUBLIC "-//W3C//DTD SVG 1.1//EN" "http://www.w3.org/Graphics/SVG/1.1/DTD/svg11.dtd" >
<svg xmlns="http://www.w3.org/2000/svg">
<metadata></metadata>
<defs>
<font id="lintelbold" horiz-adv-x="489" >
<font-face units-per-em="1000" ascent="750" descent="-250" />
<missing-glyph horiz-adv-x="300" />
<glyph horiz-adv-x="0" />
<glyph horiz-adv-x="333" />
<glyph unicode=" "  horiz-adv-x="300" />
<glyph unicode="&#x09;" horiz-adv-x="300" />
<glyph unicode="&#xa0;" horiz-adv-x="300" />
<glyph unicode="!" horiz-adv-x="198" d="M99 0q-19 0 -34 15t-15 34t15 34t34 15t34 -15t15 -34t-15 -34t-34 -15zM143 132h-88l-2 568h92z" />
<glyph unicode="&#x22;" horiz-adv-x="320" d="M143 443h-86l-7 249h97zM265 443h-86l-6 249h97z" />
<glyph unicode="#" horiz-adv-x="640" d="M349 282l17 71h-88l-17 -71h88zM590 193h-169q-6 -29 -22.5 -93t-23.5 -100h-93l48 193h-89q-4 -16 -46 -193h-92l48 193h-101v89h121l16 71h-137v91h157q15 56 54 227h92l-53 -229h87q42 180 53 229h93l-54 -229h111v-89h-132l-18 -71h150v-89z" />
<glyph unicode="$" horiz-adv-x="579" d="M334 -42h-88v34q-91 12 -142.5 80t-53.5 152h88q2 -47 31 -87t77 -53v238q-45 15 -71 26.5t-54.5 31.5t-41.5 48t-13 66q0 71 52 118.5t128 63.5v38h88v-37q78 -15 133.5 -72t56.5 -145h-88q-1 56 -29 88.5t-73 40.5v-201q36 -12 59.5 -22t51.5 -27t44.5 -35.5t28 -46.5 t11.5 -62q0 -83 -48.5 -136.5t-146.5 -66.5v-34zM439 195q0 35 -28 58.5t-77 41.5v-212q105 18 105 112zM156 494q0 -44 90 -79v171q-38 -13 -64 -37t-26 -55z" />
<glyph unicode="%" horiz-adv-x="724" d="M210 360q-69 0 -114.5 45.5t-45.5 113.5q0 66 46 113t114 47q64 0 111.5 -47.5t47.5 -112.5q0 -67 -47 -113t-112 -46zM166 0h-112l506 671h113zM210 448q29 0 50 21t21 50q0 30 -21 50.5t-50 20.5t-50 -20.5t-21 -50.5q0 -29 21 -50t50 -21zM514 -11q-68 0 -114 46.5 t-46 114.5q0 65 46.5 112.5t113.5 47.5q64 0 112 -48t48 -112q0 -67 -47.5 -114t-112.5 -47zM514 80q29 0 50 20.5t21 49.5t-21 49.5t-50 20.5t-50 -20.5t-21 -49.5t21 -49.5t50 -20.5z" />
<glyph unicode="&#x26;" horiz-adv-x="580" d="M435 116l95 -116h-116l-35 40q-50 -40 -128 -40q-86 0 -142 55t-56 139q0 43 20.5 83.5t53.5 67.5q-4 4 -20 24.5t-24 31.5q-33 41 -33 94q0 72 44.5 117.5t116.5 45.5q69 0 113.5 -46t44.5 -117q0 -36 -16 -69t-43 -53l-57 -42q4 -5 106 -121v21h88q0 -76 -12 -115z M141 194q0 -44 32 -74.5t78 -30.5q42 0 70 22l-136 166l-6 -3l3 1q-41 -37 -41 -81zM197 401l58 42q25 31 25 52q0 31 -20 52t-49 21q-32 0 -52.5 -20.5t-20.5 -52.5q0 -21 15 -40z" />
<glyph unicode="'" horiz-adv-x="197" d="M143 443h-87l-6 249h97z" />
<glyph unicode="(" horiz-adv-x="279" d="M229 -36l-36 -80q-77 43 -110 89t-33 124v418q0 80 33 126t110 89l31 -85q-26 -16 -41.5 -28t-30 -37t-14.5 -57v-431q0 -26 7.5 -47t24.5 -37t27 -23.5t32 -20.5z" />
<glyph unicode=")" horiz-adv-x="277" d="M85 -115l-35 81q21 13 31 20t26.5 23t24 36.5t7.5 46.5v431q0 32 -15 58.5t-29 37.5t-40 28l29 83q77 -43 110 -89t33 -126v-418q0 -78 -33 -123.5t-109 -88.5z" />
<glyph unicode="*" horiz-adv-x="437" d="M352 406l-74 -55l-61 82l-55 -82l-75 52l59 83l-96 36l29 87l92 -39v101h91v-105q16 6 49.5 21t48.5 21l27 -86l-99 -35z" />
<glyph unicode="+" horiz-adv-x="445" d="M266 481v-129h129v-89h-129v-129h-88v129h-128v89h128v129h88z" />
<glyph unicode="," horiz-adv-x="219" d="M160 19l-51 -50l-59 28l21 46v6q0 19 15.5 34t33.5 15q19 0 34 -15t15 -34q0 -21 -9 -30z" />
<glyph unicode="-" horiz-adv-x="445" d="M50 352h345v-89h-345v89z" />
<glyph unicode="." horiz-adv-x="198" d="M99 0q-19 0 -34 15t-15 34t15 34t34 15t34 -15t15 -34t-15 -34t-34 -15z" />
<glyph unicode="/" horiz-adv-x="435" d="M144 0h-94l244 700h91z" />
<glyph unicode="0" horiz-adv-x="531" d="M481 478v-275q0 -56 -18.5 -97.5t-50 -64t-67.5 -33t-78 -10.5q-56 0 -102.5 17.5t-80.5 65.5t-34 122v276q0 106 58 160t160 54q101 0 157 -57.5t56 -157.5zM393 203v275q0 59 -32.5 92.5t-92.5 33.5q-61 0 -95 -31.5t-34 -93.5v-276q0 -59 38 -87t90 -28q51 0 88.5 28 t37.5 87z" />
<glyph unicode="1" horiz-adv-x="310" d="M260 0h-88v558l-22 -10q-35 -12 -79 -18l-21 86l36 7q33 7 36 10q39 22 65 66h73v-699z" />
<glyph unicode="2" horiz-adv-x="472" d="M50 64l256 374q28 40 28 83q0 37 -25 63t-63 26q-77 0 -109 -101l-85 26q56 163 194 163q77 0 126.5 -50.5t49.5 -126.5q0 -67 -46 -134l-200 -298h246v-89h-372v64z" />
<glyph unicode="3" horiz-adv-x="512" d="M50 123l72 53q57 -87 128 -87q53 0 88.5 35t35.5 88q0 50 -37.5 85t-86.5 35h-88v87h88q36 0 63.5 29t27.5 68q0 40 -26 67t-64 27q-29 0 -54.5 -23t-41.5 -61l-84 30q26 66 74.5 104t105.5 38q78 0 128.5 -51.5t50.5 -130.5q0 -88 -53 -135q85 -59 85 -169 q0 -92 -59.5 -152t-152.5 -60q-56 0 -109 33t-91 90z" />
<glyph unicode="4" horiz-adv-x="522" d="M414 0h-89v197h-275v65l293 436h71v-411h58v-90h-58v-197zM174 287h151v223q-24 -42 -78.5 -119t-72.5 -104z" />
<glyph unicode="5" horiz-adv-x="521" d="M426 611h-215l-20 -177h63q96 0 156.5 -66t60.5 -152t-61.5 -152.5t-156.5 -66.5q-55 0 -110 36.5t-93 96.5l78 45q25 -39 59 -63.5t66 -24.5q57 0 93 39t36 90q0 52 -35 90.5t-93 38.5h-160l34 353h298v-87z" />
<glyph unicode="6" horiz-adv-x="535" d="M485 623l-61 -68q-65 57 -129 57q-81 0 -119 -48t-38 -104v-66q52 42 129 42q92 0 154.5 -63t62.5 -155t-63 -155.5t-154 -63.5t-154 63.5t-63 155.5v242q0 31 6.5 62t24 63.5t44.5 57t71 40.5t99 16q97 0 190 -76zM138 226v-8q0 -53 38 -91.5t91 -38.5t91.5 38.5 t38.5 91.5t-38.5 91t-91.5 38q-51 0 -89 -35.5t-40 -85.5z" />
<glyph unicode="7" horiz-adv-x="524" d="M152 0h-102l306 610h-292v88h410v-63z" />
<glyph unicode="8" horiz-adv-x="528" d="M356 513q0 41 -25.5 69t-64.5 28q-40 0 -65.5 -27.5t-25.5 -69.5q0 -37 28 -63.5t62 -26.5q36 0 63.5 26t27.5 64zM388 213q0 51 -37 87t-86 36q-52 0 -88.5 -35.5t-36.5 -87.5q0 -53 36 -89t89 -36q52 0 87.5 36t35.5 89zM478 213q0 -94 -60.5 -155t-152.5 -61 t-153.5 61.5t-61.5 154.5q0 102 89 174q-53 51 -53 126q0 82 50.5 134.5t129.5 52.5t129 -52.5t50 -134.5q0 -77 -53 -127q86 -59 86 -173z" />
<glyph unicode="9" horiz-adv-x="535" d="M50 78l60 68q68 -57 131 -57q81 0 119 48t38 104v65q-57 -42 -129 -42q-92 0 -155 63t-63 154t63 154t155 63q91 0 153.5 -62.5t62.5 -154.5v-240q0 -31 -7 -62t-24.5 -64t-44 -58t-70 -41t-98.5 -16q-97 0 -191 78zM398 473v8q0 53 -38 91.5t-91 38.5t-91.5 -38.5 t-38.5 -91.5t38.5 -91t91.5 -38q51 0 89 35.5t40 85.5z" />
<glyph unicode=":" horiz-adv-x="198" d="M99 332q-19 0 -34 15t-15 34t15 34t34 15t34 -15t15 -34t-15 -34t-34 -15zM99 0q-19 0 -34 15t-15 34t15 34t34 15t34 -15t15 -34t-15 -34t-34 -15z" />
<glyph unicode=";" horiz-adv-x="219" d="M120 332q-18 0 -33.5 15t-15.5 34t15.5 34t33.5 15q19 0 34 -15t15 -34t-15 -34t-34 -15zM155 15l-47 -47l-58 29l21 46v6q0 19 15.5 34t33.5 15q19 0 34 -15t15 -34q0 -20 -14 -34z" />
<glyph unicode="&#x3c;" horiz-adv-x="455" d="M343 637l62 -61l-233 -233l233 -233l-62 -61l-293 294z" />
<glyph unicode="=" horiz-adv-x="445" d="M395 214h-345v88h345v-88zM395 352h-345v88h345v-88z" />
<glyph unicode="&#x3e;" horiz-adv-x="455" d="M50 576l60 61l295 -294l-295 -294l-60 61l233 233z" />
<glyph unicode="?" horiz-adv-x="474" d="M228 0q-18 0 -33.5 15t-15.5 34t15.5 34t33.5 15q19 0 34 -15t15 -34t-15 -34t-34 -15zM272 122h-89v93q0 93 89 180l9 11q16 16 34 39q22 35 22 70q0 41 -26.5 68.5t-72.5 27.5q-42 0 -71 -36t-29 -100h-88q0 96 48.5 160t139.5 64q79 0 132.5 -54.5t53.5 -129.5 q0 -62 -37 -120q-22 -30 -58 -66q-19 -19 -29 -30.5t-19 -35.5t-9 -54v-87z" />
<glyph unicode="@" horiz-adv-x="529" d="M317 246v91q-16 1 -42 1q-78 0 -78 -51q0 -49 70 -49q23 0 50 8zM479 478v-281q0 -34 -24 -57.5t-57 -23.5q-26 0 -47.5 15.5t-29.5 39.5q-31 -7 -54 -7q-143 0 -143 123q0 124 151 124h30q-14 17 -56 17q-40 0 -78 -26l-38 60q63 39 116 39q40 0 68 -9t41.5 -21 t21 -34.5t8.5 -37t1 -40.5v-162q0 -9 9 -9t9 9v281q0 66 -36.5 103.5t-103.5 37.5q-68 0 -106 -35.5t-38 -104.5v-287q0 -67 42.5 -98t100.5 -31q43 0 104 27l25 -67q-72 -34 -129 -34q-41 0 -77.5 10.5t-68.5 33t-51 63.5t-19 96v287q0 105 58 159t159 54t156.5 -57.5 t55.5 -156.5z" />
<glyph unicode="A" horiz-adv-x="657" d="M390 342l-61 175q-1 -5 -4.5 -13t-4.5 -11q-37 -98 -56 -151h126zM607 0h-97l-88 251h-192l-83 -251h-97l245 700h66z" />
<glyph unicode="B" horiz-adv-x="566" d="M141 91h178q51 0 78 28.5t27 82.5q0 44 -27 73t-76 29h-180v-213zM141 396h163q50 0 76.5 28.5t26.5 82.5q0 44 -27.5 73t-75.5 29h-163v-213zM319 0h-269v700h254q90 0 142 -56t52 -137q0 -95 -53 -150q71 -49 71 -155q0 -100 -51 -151t-146 -51z" />
<glyph unicode="C" horiz-adv-x="563" d="M140 474v-243q0 -73 40.5 -111t112.5 -38q88 0 143 84l77 -49q-85 -128 -220 -128q-114 0 -178.5 61t-64.5 181v243q0 121 64.5 182t178.5 61q133 0 220 -127l-77 -50q-57 85 -143 85q-72 0 -112.5 -38.5t-40.5 -112.5z" />
<glyph unicode="D" horiz-adv-x="582" d="M308 0h-258v700h238q120 0 182 -65t62 -174v-245q0 -116 -62 -166t-162 -50zM141 91h167q134 0 134 125v245q0 65 -40.5 106.5t-113.5 41.5h-147v-518z" />
<glyph unicode="E" horiz-adv-x="549" d="M499 0h-449v700h449v-91h-359v-214h328v-91h-328v-213h359v-91z" />
<glyph unicode="F" horiz-adv-x="549" d="M140 0h-90v700h449v-91h-359v-214h328v-91h-328v-304z" />
<glyph unicode="G" horiz-adv-x="582" d="M310 304v91h222v-395h-90v32q-70 -43 -150 -43q-46 0 -87.5 13t-77 39t-56.5 72t-21 107v254q0 121 64.5 182t178.5 61q135 0 219 -127l-74 -51q-61 86 -145 86q-71 0 -111.5 -38.5t-40.5 -112.5v-254q0 -71 45 -104.5t106 -33.5q62 0 106 33t44 105v84h-132z" />
<glyph unicode="H" horiz-adv-x="582" d="M532 0h-90v304h-301v-304h-91v700h91v-305h301v305h90v-700z" />
<glyph unicode="I" horiz-adv-x="191" d="M141 0h-91v700h91v-700z" />
<glyph unicode="J" horiz-adv-x="365" d="M50 -11v93q81 0 127 33.5t46 98.5v486h92v-486q0 -112 -70.5 -168.5t-194.5 -56.5z" />
<glyph unicode="K" horiz-adv-x="604" d="M192 332l-51 -62v-270h-91v700h91v-286q95 110 242 286h119l-247 -298q41 -55 144 -194t155 -208h-116z" />
<glyph unicode="L" horiz-adv-x="473" d="M50 700h91v-609h282v-91h-373v700z" />
<glyph unicode="M" horiz-adv-x="656" d="M606 0h-92v411q-27 -73 -79.5 -210.5t-75.5 -200.5h-63l-154 411v-411h-92v700h79l199 -532q31 74 63 159.5t72.5 195.5t65.5 177h77v-700z" />
<glyph unicode="N" horiz-adv-x="549" d="M499 0h-77l-282 488v-488h-90v700h76l281 -488v488h92v-700z" />
<glyph unicode="O" horiz-adv-x="582" d="M442 220v253q0 71 -39 111.5t-110 40.5t-111.5 -38.5t-40.5 -112.5v-254q0 -71 45 -104.5t106 -33.5q62 0 106 33t44 105zM532 473v-253q0 -117 -70.5 -174t-169.5 -57q-46 0 -87.5 13t-77 39t-56.5 72t-21 107v254q0 121 64.5 182t178.5 61q115 0 177 -65.5t62 -178.5z " />
<glyph unicode="P" horiz-adv-x="561" d="M50 0v700h265q91 0 143.5 -56t52.5 -137q0 -100 -51 -151t-147 -51h-173v-305h-90zM140 396h173q51 0 78 28.5t27 82.5q0 44 -27.5 73t-75.5 29h-175v-213z" />
<glyph unicode="Q" horiz-adv-x="598" d="M533 473v-253q0 -75 -35 -132q28 -26 50 -50l-63 -62l-48 48q-53 -35 -145 -35q-46 0 -87.5 13t-77 39t-56.5 72t-21 107v254q0 121 64.5 182t178.5 61q115 0 177.5 -65.5t62.5 -178.5zM442 220v253q0 71 -39 111.5t-110 40.5t-111.5 -38.5t-40.5 -112.5v-254 q0 -71 45 -104.5t106 -33.5q44 0 75 12l-97 98l63 63l97 -98q12 34 12 63z" />
<glyph unicode="R" horiz-adv-x="592" d="M50 0v700h265q91 0 143.5 -56t52.5 -137q0 -187 -171 -201l202 -306h-110l-197 305h-94v-305h-91zM141 396h172q52 0 79 28.5t27 82.5q0 44 -27.5 73t-76.5 29h-174v-213z" />
<glyph unicode="S" horiz-adv-x="599" d="M544 480h-92q-1 65 -42.5 101t-102.5 36q-63 0 -105.5 -27t-42.5 -75q0 -18 11.5 -32t38 -27t46 -20.5t58.5 -20.5q45 -15 69 -23.5t61.5 -28t56.5 -39t34 -51t15 -69.5q0 -99 -61.5 -157t-189.5 -58q-76 0 -134 38.5t-85 92.5t-29 113h91q2 -59 44 -105t113 -46 q82 0 120.5 33t38.5 89q0 19 -11 35.5t-24 27t-41.5 23t-44.5 18t-52 17.5q-39 13 -65 22.5t-57.5 26.5t-50 35.5t-31.5 45.5t-13 60q0 93 69 144t171 51q98 0 167 -60.5t70 -169.5z" />
<glyph unicode="T" horiz-adv-x="549" d="M317 0h-92v609h-175v91h449v-91h-182v-609z" />
<glyph unicode="U" horiz-adv-x="582" d="M442 701h90v-481q0 -117 -70.5 -174t-169.5 -57q-46 0 -87.5 13t-77 39t-56.5 72t-21 107v481h91v-481q0 -71 45 -104.5t106 -33.5q62 0 106 33t44 105v481z" />
<glyph unicode="V" horiz-adv-x="632" d="M357 0h-79l-228 700h99l169 -512q85 260 165 512h99z" />
<glyph unicode="W" horiz-adv-x="817" d="M587 0h-78l-101 440l-98 -440h-80l-180 700h96l120 -458q16 79 52 231t52 227h78l103 -466l119 466h97z" />
<glyph unicode="X" horiz-adv-x="696" d="M646 0h-111l-188 280l-185 -280h-112l243 364q-29 44 -104.5 156t-120.5 180h108l171 -255q105 153 171 255h112l-226 -336z" />
<glyph unicode="Y" horiz-adv-x="663" d="M377 0h-90v347l-237 353h109l173 -255l171 255h110l-236 -351v-349z" />
<glyph unicode="Z" horiz-adv-x="605" d="M555 0h-505v65l374 544h-354v91h485v-65l-376 -544h376v-91z" />
<glyph unicode="[" horiz-adv-x="311" d="M261 -98h-211v812h211v-88h-122v-635h122v-89z" />
<glyph unicode="\" horiz-adv-x="438" d="M388 0h-93l-245 700h94z" />
<glyph unicode="]" horiz-adv-x="311" d="M261 -98h-211v89h122v635h-122v88h211v-812z" />
<glyph unicode="^" horiz-adv-x="435" d="M107 457l-57 67l169 162l166 -166l-60 -60l-106 104z" />
<glyph unicode="_" horiz-adv-x="445" d="M395 -15h-345v88h345v-88z" />
<glyph unicode="`" horiz-adv-x="290" d="M240 533h-92l-98 167h117z" />
<glyph unicode="a" horiz-adv-x="502" d="M269 -12q-219 5 -219 186q0 186 231 186q46 0 76 -3q-25 62 -118 62q-66 0 -120 -35l-56 73q92 52 176 52q44 0 78.5 -7.5t56.5 -18t37.5 -30t23.5 -35t12 -42t4.5 -42t0.5 -44.5v-293h-88v6q-48 -15 -95 -15zM364 96v169q-45 6 -83 6q-141 0 -141 -97q0 -95 129 -95 q49 0 95 17z" />
<glyph unicode="b" d="M50 0v700h89v-204q48 14 102 14q86 0 142 -42t56 -138v-161q0 -109 -96 -156q-46 -22 -107 -22q-55 0 -97 13v-4h-89zM350 168v162q0 47 -31 68.5t-78 21.5q-53 0 -102 -15v-306q45 -18 97 -18q49 0 81.5 21t32.5 66z" />
<glyph unicode="c" horiz-adv-x="456" d="M384 100l20 -86q-96 -24 -147 -24q-50 0 -87 14q-62 22 -91 66t-29 120v110q0 103 53.5 156.5t140.5 53.5q53 0 162 -47l-36 -80q-74 37 -126 37q-47 0 -77 -31t-30 -89v-110q0 -84 60 -102q24 -8 60 -8q32 0 127 20z" />
<glyph unicode="d" d="M439 700v-700h-89v6q-51 -15 -97 -15q-64 0 -110 22q-93 47 -93 156v161q0 96 55.5 138t142.5 42q49 0 102 -15v205h89zM139 168q0 -45 32 -66t82 -21t97 18v305q-50 16 -102 16q-48 0 -78.5 -21.5t-30.5 -68.5v-162z" />
<glyph unicode="e" horiz-adv-x="480" d="M341 300v30q0 47 -29.5 68.5t-70.5 21.5t-72 -22.5t-31 -69.5v-28h203zM380 132l43 -80q-108 -63 -191 -64h-9q-80 0 -126.5 40.5t-46.5 121.5v177q0 85 53 134t139 49q89 0 138.5 -48.5t49.5 -132.5v-117h-292v-63q0 -34 24.5 -53t62.5 -19q58 0 155 55z" />
<glyph unicode="f" horiz-adv-x="327" d="M50 0v527q0 88 46.5 130.5t114.5 42.5q30 0 66 -5v-91q-51 8 -66 8q-30 0 -50.5 -20.5t-20.5 -64.5v-4h129v-90h-129v-433h-90z" />
<glyph unicode="g" d="M350 500h89v-513q0 -80 -47 -120.5t-126 -40.5h-9q-84 1 -192 64l44 77q102 -55 155 -55q37 0 61.5 19.5t24.5 54.5v17q-46 -15 -104 -15q-68 0 -105 20q-91 50 -91 158v166q0 108 93 155q46 22 110 22q61 0 97 -13v4zM248 78q56 0 102 14v309q-46 18 -97 18 q-50 0 -82 -21t-32 -66v-164q0 -47 30.5 -68.5t78.5 -21.5z" />
<glyph unicode="h" d="M439 0h-89v333q0 46 -31.5 67t-79.5 21q-51 0 -100 -20v-401h-89v700h89v-205q50 15 97 15q61 0 107 -22q96 -47 96 -156v-332z" />
<glyph unicode="i" horiz-adv-x="195" d="M98 585q-48 0 -48 48q0 47 48 47q47 0 47 -47q0 -25 -11 -36.5t-36 -11.5zM142 0h-88v501h88v-501z" />
<glyph unicode="j" horiz-adv-x="278" d="M70 -181l-20 84q84 11 84 62v536h90v-536q0 -44 -28.5 -86t-82.5 -56q-9 -4 -43 -4zM181 585q-48 0 -48 48q0 47 48 47q47 0 47 -47q0 -25 -11 -36.5t-36 -11.5z" />
<glyph unicode="k" horiz-adv-x="525" d="M475 0h-111l-180 238l-14 -13q-13 -13 -30 -27v-198h-90v700h90v-382q36 33 110 103l92 88h131l-224 -207q214 -286 226 -302z" />
<glyph unicode="l" horiz-adv-x="189" d="M139 0h-89v700h89v-700z" />
<glyph unicode="m" horiz-adv-x="708" d="M658 0h-89v331q0 43 -22.5 65.5t-56.5 22.5q-33 0 -72 -18l-18 -8q2 -9 2 -30v-363h-89v358q0 61 -84 61q-49 0 -89 -17v-402h-90v501h90v-6q45 15 89 15q77 0 128 -40l25 14q48 26 109 26q74 0 120.5 -48t46.5 -130v-332z" />
<glyph unicode="n" d="M439 0h-89v333q0 45 -32.5 66t-81.5 21q-51 0 -97 -19v-401h-89v501h89v-6q47 15 97 15q61 0 107 -22q96 -47 96 -156v-332z" />
<glyph unicode="o" horiz-adv-x="492" d="M442 307v-114q0 -86 -49 -144.5t-147 -58.5q-95 0 -145.5 59t-50.5 144v114q0 98 51 151.5t145 53.5q92 0 144 -55t52 -150zM353 193v114q0 54 -27.5 84t-79.5 30q-107 0 -107 -114v-114q0 -48 27.5 -80.5t79.5 -32.5q54 0 80.5 32t26.5 81z" />
<glyph unicode="p" d="M50 -174v674h89v-6q48 15 97 15q63 0 107 -21q96 -46 96 -156v-162q0 -96 -56 -138t-142 -42q-46 0 -102 15v-179h-89zM350 332q0 45 -32.5 66t-81.5 21q-54 0 -97 -18v-305q48 -16 102 -16q47 0 78 21.5t31 68.5v162z" />
<glyph unicode="q" d="M439 500v-674h-89v181q-56 -17 -102 -17q-87 0 -142.5 42t-55.5 138v162q0 108 93 155q46 22 110 22q61 0 97 -13v4h89zM139 332v-162q0 -47 30.5 -68.5t78.5 -21.5q53 0 102 15v306q-46 18 -97 18q-50 0 -82 -21t-32 -66z" />
<glyph unicode="r" horiz-adv-x="393" d="M50 0v501h89v-18q54 29 107 29q37 0 97 -20l-17 -90q-59 19 -80 19q-107 0 -107 -114v-307h-89z" />
<glyph unicode="s" horiz-adv-x="484" d="M50 179h89q3 -43 30.5 -73t77.5 -30q44 0 71 19t27 47q0 14 -8.5 25.5t-27.5 20.5t-34.5 14.5t-42.5 13.5q-42 13 -62.5 21t-49 25t-41 41.5t-12.5 58.5q0 61 44 106t134 45t134.5 -57t44.5 -131h-88q0 39 -22 68t-69 29q-45 0 -66.5 -18.5t-21.5 -41.5q0 -25 101 -57 q30 -10 50.5 -17.5t46.5 -21.5t41.5 -30t26.5 -40.5t11 -53.5q0 -68 -51 -111.5t-136 -43.5q-90 0 -139.5 56t-57.5 136z" />
<glyph unicode="t" horiz-adv-x="354" d="M304 80v-91q-118 0 -186 55.5t-68 161.5v494h88v-199h129v-89h-129v-206q0 -62 44.5 -94t121.5 -32z" />
<glyph unicode="u" d="M50 501h89v-333q0 -45 32 -66t82 -21t97 18v402h89v-501h-89v6q-51 -15 -97 -15q-64 0 -110 22q-93 47 -93 156v332z" />
<glyph unicode="v" horiz-adv-x="531" d="M294 0h-56l-188 501h91l124 -332q20 55 62.5 164.5t64.5 167.5h89z" />
<glyph unicode="w" horiz-adv-x="729" d="M515 0h-65l-86 290l-85 -290h-64l-165 501h91l99 -305q24 79 41.5 139t30.5 105t18 61h68l90 -306q15 45 32 96.5t37.5 114t31.5 95.5h90z" />
<glyph unicode="x" horiz-adv-x="514" d="M461 0h-105l-103 168l-102 -168h-101l154 249l-152 252h107l98 -163l100 163h107l-153 -252q5 -8 57.5 -94.5t92.5 -154.5z" />
<glyph unicode="y" d="M350 501h89v-514q0 -80 -47 -120.5t-126 -40.5h-9q-84 1 -192 64l44 77q102 -55 155 -55q37 0 61.5 19.5t24.5 54.5v17q-46 -15 -104 -15q-68 0 -105 20q-91 50 -91 158v335h89v-333q0 -47 30.5 -68.5t78.5 -21.5q56 0 102 14v409z" />
<glyph unicode="z" horiz-adv-x="468" d="M418 0h-368v63l243 349h-224v89h349v-63l-243 -349h243v-89z" />
<glyph unicode="{" horiz-adv-x="356" d="M128 391v124q0 79 33.5 125.5t110.5 91.5l31 -86q-28 -18 -41.5 -28.5t-29 -36.5t-15.5 -58v-132q0 -39 -43 -86q43 -49 43 -89v-124q0 -34 15.5 -60.5t31.5 -38t42 -25.5l-34 -87q-77 45 -110.5 91.5t-33.5 124.5v119q0 15 -78 88l31 30q47 44 47 57z" />
<glyph unicode="|" horiz-adv-x="188" d="M138 -42h-88v742h88v-742z" />
<glyph unicode="}" horiz-adv-x="357" d="M228 391q0 -12 48 -57l31 -30q-79 -74 -79 -88v-119q0 -79 -33.5 -125t-110.5 -88l-34 84q30 19 45 31t29.5 37t14.5 56v124q0 41 42 89q-42 46 -42 86v132q0 25 -7.5 45t-23 35t-27 23t-30.5 19l33 85q77 -43 110.5 -89.5t33.5 -125.5v-124z" />
<glyph unicode="~" horiz-adv-x="537" d="M425 311l62 -64q-68 -65 -124 -65q-39 0 -94 20q-41 18 -76 18q-27 0 -78 -57l-65 62q72 84 143 84q32 0 81 -17l8 -3q50 -18 81 -18q19 0 62 40z" />
<glyph unicode="&#xa2;" horiz-adv-x="456" d="M288 -42h-88v36l-30 8q-65 22 -92.5 65t-27.5 123v110q0 85 41.5 138t108.5 69v45h88v-46q47 -11 118 -43l-36 -80q-56 25 -82 31v-332q50 6 97 20l19 -89q-90 -20 -116 -23v-32zM137 300v-110q0 -84 48 -98q6 -4 15 -6v325q-63 -30 -63 -111z" />
<glyph unicode="&#xa3;" horiz-adv-x="549" d="M290 0h-240v71q41 22 69 63t28 81q0 41 -10 74h-68v89h35q-15 51 -15 99q0 91 56.5 146.5t144.5 55.5q66 0 135 -42l-27 -87l-26 15q-46 25 -82 25q-53 0 -82.5 -33t-29.5 -82q0 -32 21 -97h127v-89h-98q0 -1 0.5 -3.5t0.5 -3.5q8 -46 8 -73q0 -60 -35 -120h88 q83 0 141 85l68 -56q-76 -118 -209 -118z" />
<glyph unicode="&#xa5;" horiz-adv-x="640" d="M274 307h-128v89h86q-10 15 -78.5 117t-103.5 158h105l163 -242q27 41 82.5 121.5t82.5 120.5h107l-187 -275h89v-89h-129v-33h129v-89h-129v-185h-89v185h-128v89h128v33z" />
<glyph unicode="&#xa9;" horiz-adv-x="780" d="M479 319h88q-18 -79 -66.5 -127t-108.5 -48q-82 0 -129.5 53t-47.5 137q0 78 48 133.5t128 55.5q62 0 111 -48t62 -125h-81q-8 34 -31 62.5t-61 28.5q-45 0 -70 -32t-25 -74q0 -43 23.5 -76.5t72.5 -33.5q34 0 58 30t29 64zM390 -6q-135 0 -237.5 97t-102.5 245 q0 147 101.5 243t238.5 96q143 0 241.5 -97.5t98.5 -241.5q0 -146 -103.5 -244t-236.5 -98zM390 84q98 0 175 72t77 180q0 104 -74 178t-178 74q-102 0 -176.5 -72t-74.5 -180q0 -109 76 -180.5t175 -71.5z" />
<glyph unicode="&#xad;" horiz-adv-x="445" d="M50 352h345v-89h-345v89z" />
<glyph unicode="&#xae;" horiz-adv-x="781" d="M329 371h73q44 0 44 37q0 35 -49 35h-68v-72zM562 163h-95l-82 127h-56v-127h-82v363h152q56 0 92.5 -34t36.5 -84q0 -79 -59 -104q26 -42 93 -141zM391 -4q-137 0 -239 97.5t-102 244.5q0 146 100.5 242t240.5 96q141 0 240.5 -96t99.5 -242q0 -148 -99.5 -245 t-240.5 -97zM391 86q105 0 178 71.5t73 180.5q0 108 -73 179.5t-178 71.5t-178.5 -71.5t-73.5 -179.5q0 -109 75 -180.5t177 -71.5z" />
<glyph unicode="&#xb4;" horiz-adv-x="290" d="M143 533h-93l73 167h117z" />
<glyph unicode="&#x2000;" horiz-adv-x="366" />
<glyph unicode="&#x2001;" horiz-adv-x="732" />
<glyph unicode="&#x2002;" horiz-adv-x="366" />
<glyph unicode="&#x2003;" horiz-adv-x="732" />
<glyph unicode="&#x2004;" horiz-adv-x="244" />
<glyph unicode="&#x2005;" horiz-adv-x="183" />
<glyph unicode="&#x2006;" horiz-adv-x="122" />
<glyph unicode="&#x2007;" horiz-adv-x="122" />
<glyph unicode="&#x2008;" horiz-adv-x="91" />
<glyph unicode="&#x2009;" horiz-adv-x="146" />
<glyph unicode="&#x200a;" horiz-adv-x="40" />
<glyph unicode="&#x2010;" horiz-adv-x="445" d="M50 352h345v-89h-345v89z" />
<glyph unicode="&#x2011;" horiz-adv-x="445" d="M50 352h345v-89h-345v89z" />
<glyph unicode="&#x2012;" horiz-adv-x="445" d="M50 352h345v-89h-345v89z" />
<glyph unicode="&#x2013;" horiz-adv-x="492" d="M50 313h392v-89h-392v89z" />
<glyph unicode="&#x2014;" horiz-adv-x="632" d="M50 313h532v-89h-532v89z" />
<glyph unicode="&#x2018;" horiz-adv-x="217" d="M58 652l50 48l59 -20l-19 -48q0 -1 0.5 -4t0.5 -4q0 -19 -15.5 -34t-34.5 -15t-34 15t-15 34q0 20 8 28z" />
<glyph unicode="&#x2019;" horiz-adv-x="219" d="M158 620l-47 -45l-61 22q19 44 21 49v5q0 19 15.5 34t34.5 15q18 0 33 -15t15 -34q0 -18 -11 -31z" />
<glyph unicode="&#x201c;" horiz-adv-x="341" d="M57 652l50 48l59 -20l-18 -48q0 -1 0.5 -4t0.5 -4q0 -19 -15.5 -34t-34.5 -15t-34 15t-15 34q0 21 7 28zM181 652l50 48l60 -20l-20 -49q1 -3 1 -7q0 -19 -15.5 -34t-34.5 -15q-18 0 -33.5 15t-15.5 34q0 20 8 28z" />
<glyph unicode="&#x201d;" horiz-adv-x="341" d="M284 623l-50 -48l-59 20l18 48q0 1 -0.5 4t-0.5 4q0 19 15.5 34t34.5 15t34 -15t15 -34q0 -21 -7 -28zM160 623l-50 -48l-60 20l20 49q-1 3 -1 7q0 19 15.5 34t34.5 15q18 0 33.5 -15t15.5 -34q0 -20 -8 -28z" />
<glyph unicode="&#x2022;" horiz-adv-x="328" d="M50 306q0 44 34 78.5t80 34.5t80 -34.5t34 -78.5q0 -49 -33.5 -82t-80.5 -33q-48 0 -81 33t-33 82z" />
<glyph unicode="&#x2026;" horiz-adv-x="483" d="M99 0q-19 0 -34 15t-15 34t15 34t34 15t34 -15t15 -34t-15 -34t-34 -15zM241 0q-19 0 -34 15t-15 34t15 34t34 15t34 -15t15 -34t-15 -34t-34 -15zM384 0q-19 0 -34 15t-15 34t15 34t34 15q20 0 34.5 -15t14.5 -34t-15 -34t-34 -15z" />
<glyph unicode="&#x202f;" horiz-adv-x="146" />
<glyph unicode="&#x205f;" horiz-adv-x="183" />
<glyph unicode="&#x20ac;" horiz-adv-x="568" d="M92 248h-42v89h42v21h-42v88h42v44q0 104 64 154t153 50q61 0 118 -33.5t91 -104.5l-78 -39q-22 45 -57.5 66.5t-73.5 21.5q-52 0 -90 -28t-38 -87v-44h214v-88h-214v-21h214v-89h-214v-44q0 -59 38 -87t90 -28q38 0 72.5 21.5t56.5 67.5l80 -39q-35 -71 -91.5 -105.5 t-117.5 -34.5q-56 0 -102.5 17.5t-80.5 65.5t-34 122v44z" />
<glyph unicode="&#x2122;" horiz-adv-x="754" d="M234 287h-89v327h-95v86h282v-86h-98v-327zM704 287h-88v134l-50 -134h-61l-50 134v-134h-89v413h75l96 -252q20 48 94 252h73v-413z" />
<glyph unicode="&#x25fc;" horiz-adv-x="500" d="M0 500h500v-500h-500v500z" />
</font>
</defs>
</svg>
