<?xml version="1.0" standalone="no"?>
<!DOCTYPE svg PUBLIC "-//W3C//DTD SVG 1.1//EN" "http://www.w3.org/Graphics/SVG/1.1/DTD/svg11.dtd" >
<svg xmlns="http://www.w3.org/2000/svg">
<metadata></metadata>
<defs>
<font id="lintelbold_italic" horiz-adv-x="489" >
<font-face units-per-em="1000" ascent="750" descent="-250" />
<missing-glyph horiz-adv-x="300" />
<glyph horiz-adv-x="0" />
<glyph horiz-adv-x="333" />
<glyph unicode=" "  horiz-adv-x="300" />
<glyph unicode="&#x09;" horiz-adv-x="300" />
<glyph unicode="&#xa0;" horiz-adv-x="300" />
<glyph unicode="!" horiz-adv-x="198" d="M99 0q-17 0 -28.5 12t-11.5 29q0 5 1 8q4 19 21.5 34t37.5 15q16 0 28 -12t12 -29q0 -5 -1 -8q-4 -19 -22 -34t-37 -15zM171 132h-88l118 568h92z" />
<glyph unicode="&#x22;" horiz-adv-x="320" d="M237 443h-86l46 249h97zM359 443h-86l47 249h97z" />
<glyph unicode="#" horiz-adv-x="640" d="M408 282l33 71h-88l-33 -71h88zM631 193h-169q-11 -25 -41 -90.5t-46 -102.5h-93l89 193h-89q-33 -67 -87 -193h-92l89 193h-101l18 89h121l32 71h-137l19 91h157q29 62 102 227h92l-102 -229h87q59 130 102 229h93l-103 -229h111l-18 -89h-132l-34 -71h150z" />
<glyph unicode="$" horiz-adv-x="579" d="M325 -42h-88l7 34q-76 10 -113.5 62t-37.5 123q0 26 4 47h88q-2 -16 -2 -25q0 -40 20.5 -72t59.5 -43l51 238q-36 13 -57.5 23t-45 26t-34 37.5t-10.5 49.5q0 19 4 36q15 71 77 118.5t141 63.5l8 38h88l-8 -37q65 -14 107 -58t42 -113q0 -19 -5 -46h-88q4 26 4 35 q0 80 -78 94l-43 -201q37 -14 60.5 -25.5t48.5 -29.5t37 -42.5t12 -56.5q0 -20 -4 -39q-18 -83 -77.5 -136.5t-160.5 -66.5zM480 195q2 12 2 16q0 49 -86 84l-45 -212q109 18 129 112zM261 494q-1 -3 -1 -10q0 -38 74 -69l36 171q-41 -14 -72 -37.5t-37 -54.5z" />
<glyph unicode="%" horiz-adv-x="724" d="M286 360q-59 0 -94.5 34t-35.5 88q0 20 4 37q14 65 70 112.5t124 47.5q56 0 92 -36.5t36 -91.5q0 -15 -3 -32q-15 -67 -71.5 -113t-121.5 -46zM166 0h-112l648 671h113zM305 448q29 0 54.5 21t31.5 50q1 5 1 15q0 25 -16 40.5t-41 15.5q-30 0 -55 -20.5t-31 -50.5 q-1 -5 -1 -14q0 -24 16 -40.5t41 -16.5zM511 -11q-59 0 -94.5 35.5t-35.5 90.5q0 19 4 35q14 66 70.5 113t123.5 47q56 0 93 -37t37 -91q0 -10 -4 -32q-14 -67 -71.5 -114t-122.5 -47zM531 80q29 0 54 20.5t31 49.5q1 5 1 14q0 24 -16 40t-41 16q-29 0 -54.5 -20.5 t-31.5 -49.5q-1 -5 -1 -14q0 -24 16.5 -40t41.5 -16z" />
<glyph unicode="&#x26;" horiz-adv-x="580" d="M459 116l71 -116h-116l-27 40q-59 -40 -136 -40q-73 0 -117.5 41.5t-44.5 108.5q0 19 5 44q9 43 38 83.5t68 67.5q-4 7 -15 26t-17 30q-17 29 -17 62q0 10 4 32q15 72 69 117.5t126 45.5q59 0 93.5 -34t34.5 -90q0 -20 -4 -39q-18 -78 -85 -122l-66 -42q1 -2 80 -121 l5 21h88q-18 -81 -37 -115zM182 194q-2 -8 -2 -22q0 -36 25 -59.5t64 -23.5q42 0 75 22l-101 166l-6 -3l3 1q-50 -38 -58 -81zM282 401l67 42q31 31 36 52q2 12 2 17q0 25 -15.5 40.5t-40.5 15.5q-32 0 -56.5 -20.5t-31.5 -52.5q-1 -3 -1 -11q0 -17 7 -29z" />
<glyph unicode="'" horiz-adv-x="197" d="M237 443h-87l47 249h97z" />
<glyph unicode="(" horiz-adv-x="279" d="M221 -36l-53 -80q-55 34 -80 69t-25 85q0 28 7 59l89 418q17 80 59.5 126t129.5 89l13 -85q-30 -15 -48 -27.5t-37.5 -37.5t-26.5 -57l-92 -431q-3 -15 -3 -29q0 -24 11 -43.5t21.5 -28.5t29.5 -23z" />
<glyph unicode=")" horiz-adv-x="277" d="M60 -115l-18 81q24 13 35.5 20t31.5 23t31.5 36.5t17.5 46.5l92 431q3 15 3 28q0 23 -11 43t-21.5 29.5t-28.5 23.5l47 83q54 -34 79 -68.5t25 -85.5q0 -29 -7 -61l-89 -418q-16 -78 -58.5 -123.5t-128.5 -88.5z" />
<glyph unicode="*" horiz-adv-x="437" d="M438 406l-86 -55l-43 82l-73 -82l-64 52l77 83l-89 36l48 87l84 -39l21 101h91l-22 -105q17 6 53.5 21t53.5 21l8 -86l-106 -35z" />
<glyph unicode="+" horiz-adv-x="445" d="M368 481l-28 -129h129l-19 -89h-129l-27 -129h-88l27 129h-128l19 89h128l28 129h88z" />
<glyph unicode="," horiz-adv-x="219" d="M164 19l-62 -50l-53 28l31 46l1 6q4 19 22.5 34t36.5 15q16 0 28 -12t12 -29q0 -5 -1 -8q-4 -20 -15 -30z" />
<glyph unicode="-" horiz-adv-x="445" d="M124 352h345l-19 -89h-345z" />
<glyph unicode="." horiz-adv-x="198" d="M99 0q-17 0 -28.5 12t-11.5 29q0 5 1 8q4 19 21.5 34t37.5 15q16 0 28 -12t12 -29q0 -5 -1 -8q-4 -19 -22 -34t-37 -15z" />
<glyph unicode="/" horiz-adv-x="435" d="M144 0h-94l392 700h91z" />
<glyph unicode="0" horiz-adv-x="531" d="M582 478l-58 -275q-16 -74 -59 -122t-92.5 -65.5t-106.5 -17.5q-76 0 -127.5 36t-51.5 114q0 25 6 55l58 276q23 106 92.5 160t171.5 54q84 0 129 -41t45 -114q0 -31 -7 -60zM436 203l58 275q4 17 4 37q0 42 -26 65.5t-76 23.5q-61 0 -102 -31.5t-54 -93.5l-58 -276 q-3 -17 -3 -29q0 -44 31 -65t75 -21q51 0 94.5 28t56.5 87z" />
<glyph unicode="1" horiz-adv-x="310" d="M260 0h-88l118 558l-24 -10q-37 -12 -83 -18l-3 86l38 7q34 7 38 10q44 22 79 66h73z" />
<glyph unicode="2" horiz-adv-x="472" d="M63 64l336 374q37 42 45 83q2 7 2 20q0 30 -19.5 49.5t-51.5 19.5q-77 0 -130 -101l-80 26q91 163 229 163q66 0 104 -38t38 -98q0 -22 -4 -41q-13 -67 -74 -134l-264 -298h246l-18 -89h-372z" />
<glyph unicode="3" horiz-adv-x="512" d="M76 123l83 53q38 -87 109 -87q53 0 96 35t55 88q2 8 2 23q0 42 -29 69.5t-72 27.5h-88l19 87h88q36 0 69.5 29t41.5 68q2 7 2 21q0 32 -19.5 52.5t-52.5 20.5q-60 0 -114 -84l-77 30q40 66 96 104t114 38q66 0 105.5 -38t39.5 -100q0 -19 -5 -44q-18 -87 -82 -135 q55 -44 55 -122q0 -20 -5 -47q-20 -93 -92 -152.5t-165 -59.5q-56 0 -102 33t-72 90z" />
<glyph unicode="4" horiz-adv-x="522" d="M414 0h-89l41 197h-275l14 65l386 436h71l-87 -411h58l-20 -90h-58zM235 287h151l47 223q-33 -41 -102.5 -117t-95.5 -106z" />
<glyph unicode="5" horiz-adv-x="521" d="M555 611h-215l-57 -177h63q83 0 129 -49.5t46 -121.5q0 -20 -5 -47q-18 -86 -93.5 -152.5t-170.5 -66.5q-55 0 -102.5 36.5t-72.5 96.5l88 45q17 -40 45.5 -64t60.5 -24q57 0 101.5 39t54.5 90q3 15 3 29q0 43 -27 71.5t-76 28.5h-160l109 353h298z" />
<glyph unicode="6" horiz-adv-x="535" d="M617 623l-76 -68q-52 57 -116 57q-81 0 -129.5 -48t-60.5 -104l-14 -66q61 42 138 42q79 0 127.5 -47.5t48.5 -122.5q0 -21 -5 -48q-20 -92 -96.5 -155.5t-167.5 -63.5q-79 0 -127 48t-48 123q0 28 5 48l51 242q9 40 29 78.5t54 76.5t89.5 61t123.5 23q96 0 174 -76z M186 226l-2 -8q-3 -14 -3 -27q0 -44 29 -73.5t75 -29.5q53 0 100 38.5t58 91.5q3 14 3 26q0 44 -30 73.5t-76 29.5q-51 0 -96 -35.5t-58 -85.5z" />
<glyph unicode="7" horiz-adv-x="524" d="M152 0h-102l435 610h-292l19 88h410l-14 -63z" />
<glyph unicode="8" horiz-adv-x="528" d="M465 513q2 8 2 23q0 33 -19.5 53.5t-52.5 20.5q-40 0 -71.5 -28t-39.5 -69q-2 -12 -2 -18q0 -31 21.5 -51.5t50.5 -20.5q36 0 69 26t42 64zM433 213q2 8 2 24q0 43 -28.5 71t-70.5 28q-52 0 -96.5 -36t-54.5 -87q-3 -15 -3 -28q0 -43 28 -70t73 -27q53 0 96 36t54 89z M523 213q-20 -94 -93.5 -155t-165.5 -61q-79 0 -127 46t-48 120q0 25 6 50q21 102 126 174q-30 36 -30 88q0 21 4 38q17 82 78.5 134.5t140.5 52.5q67 0 106 -38.5t39 -102.5q0 -19 -5 -46q-17 -77 -80 -127q55 -44 55 -122q0 -24 -6 -51z" />
<glyph unicode="9" horiz-adv-x="535" d="M66 78l75 68q55 -57 118 -57q81 0 129.5 48t60.5 104l14 65q-66 -42 -138 -42q-79 0 -128 47.5t-49 122.5q0 20 5 47q19 91 95.5 154t168.5 63q79 0 127 -47.5t48 -121.5q0 -28 -5 -48l-51 -240q-9 -40 -29 -79t-54 -77t-89.5 -61.5t-122.5 -23.5q-97 0 -175 78zM498 473 l2 8q3 13 3 27q0 45 -29.5 74t-75.5 29q-53 0 -99.5 -38.5t-57.5 -91.5q-3 -14 -3 -26q0 -44 29.5 -73.5t75.5 -29.5q51 0 96.5 35.5t58.5 85.5z" />
<glyph unicode=":" horiz-adv-x="198" d="M169 332q-17 0 -28.5 12t-11.5 29q0 5 1 8q5 20 23 34.5t37 14.5q16 0 27.5 -11t11.5 -28q0 -7 -1 -10q-4 -19 -22 -34t-37 -15zM99 0q-17 0 -28.5 12t-11.5 29q0 5 1 8q4 19 21.5 34t37.5 15q16 0 28 -12t12 -29q0 -5 -1 -8q-4 -19 -22 -34t-37 -15z" />
<glyph unicode=";" horiz-adv-x="219" d="M190 332q-16 0 -28 12.5t-12 28.5q0 5 1 8q4 19 23 34t37 15q17 0 28 -11t11 -28q0 -7 -1 -10q-4 -19 -22 -34t-37 -15zM158 15l-57 -47l-52 29l31 46l1 6q4 19 22.5 34t36.5 15q16 0 28 -12t12 -29q0 -5 -1 -8q-4 -19 -21 -34z" />
<glyph unicode="&#x3c;" horiz-adv-x="455" d="M478 637l49 -61l-283 -233l184 -233l-75 -61l-231 294z" />
<glyph unicode="=" horiz-adv-x="445" d="M440 214h-345l19 88h345zM469 352h-345l19 88h345z" />
<glyph unicode="&#x3e;" horiz-adv-x="455" d="M172 576l73 61l232 -294l-357 -294l-47 61l282 233z" />
<glyph unicode="?" horiz-adv-x="474" d="M228 0q-16 0 -28 12.5t-12 28.5q0 5 1 8q4 19 22.5 34t36.5 15q16 0 28 -12t12 -29q0 -5 -1 -8q-4 -19 -22 -34t-37 -15zM297 122h-89l20 93q20 93 127 180l12 11q20 16 42 39q29 33 37 70q2 8 2 22q0 33 -20.5 53.5t-60.5 20.5q-42 0 -78.5 -36t-50.5 -100h-88 q21 96 83 160t153 64q69 0 110 -41.5t41 -104.5q0 -21 -4 -38q-14 -64 -63 -120q-28 -31 -72 -66q-23 -18 -35.5 -30t-26 -36t-20.5 -54z" />
<glyph unicode="@" horiz-adv-x="529" d="M369 246l19 91q-16 1 -42 1q-78 0 -88 -51q-1 -4 -1 -12q0 -37 60 -37q23 0 52 8zM580 478l-60 -281q-7 -34 -36 -57.5t-62 -23.5q-26 0 -44 15.5t-21 39.5q-33 -7 -56 -7q-120 0 -120 88q0 18 4 35q26 124 177 124h30q-10 17 -53 17q-40 0 -83 -26l-25 60q71 39 124 39 q119 0 119 -81q0 -16 -9 -61l-35 -164q0 -7 7 -7q9 0 11 9l60 281q5 25 5 41q0 48 -29.5 74t-85.5 26q-68 0 -113.5 -35.5t-60.5 -104.5l-61 -287q-3 -17 -3 -32q0 -50 34.5 -73.5t84.5 -23.5q43 0 110 27l10 -67q-79 -34 -136 -34q-76 0 -127.5 35.5t-51.5 113.5q0 25 6 54 l61 287q23 105 92.5 159t170.5 54q84 0 128.5 -40.5t44.5 -113.5q0 -31 -7 -60z" />
<glyph unicode="A" horiz-adv-x="657" d="M462 342l-24 175l-102 -175h126zM607 0h-97l-35 251h-192l-136 -251h-97l393 700h66z" />
<glyph unicode="B" horiz-adv-x="566" d="M160 91h178q105 0 128 111q3 13 3 27q0 34 -21.5 54.5t-62.5 20.5h-180zM225 396h163q103 0 126 111q3 13 3 25q0 34 -21.5 55.5t-62.5 21.5h-163zM319 0h-269l148 700h254q76 0 117 -41.5t41 -106.5q0 -18 -5 -45q-19 -96 -85 -150q44 -37 44 -103q0 -25 -6 -52 q-21 -100 -82.5 -151t-156.5 -51z" />
<glyph unicode="C" horiz-adv-x="563" d="M240 474l-51 -243q-5 -27 -5 -44q0 -52 33 -78.5t93 -26.5q88 0 161 84l66 -49q-112 -128 -247 -128q-95 0 -147 42.5t-52 127.5q0 37 8 72l51 243q26 121 103.5 182t191.5 61q133 0 193 -127l-88 -50q-39 85 -125 85q-71 0 -120 -38.5t-65 -112.5z" />
<glyph unicode="D" horiz-adv-x="582" d="M308 0h-258l148 700h238q100 0 150.5 -45.5t50.5 -126.5q0 -30 -8 -67l-52 -245q-45 -216 -269 -216zM160 91h167q134 0 160 125l52 245q4 17 4 38q0 50 -32 80t-94 30h-147z" />
<glyph unicode="E" horiz-adv-x="549" d="M499 0h-449l148 700h449l-19 -91h-359l-46 -214h328l-19 -91h-328l-45 -213h359z" />
<glyph unicode="F" horiz-adv-x="549" d="M140 0h-90l148 700h449l-19 -91h-359l-46 -214h328l-19 -91h-328z" />
<glyph unicode="G" horiz-adv-x="582" d="M374 304l19 91h222l-83 -395h-90l6 32q-78 -43 -159 -43q-84 0 -142 42t-58 129q0 29 7 60l54 254q26 121 103.5 182t191.5 61q135 0 192 -127l-85 -51q-43 86 -127 86q-71 0 -119.5 -38.5t-64.5 -112.5l-54 -254q-4 -17 -4 -35q0 -53 37 -78t89 -25q62 0 113 33t66 105 l18 84h-132z" />
<glyph unicode="H" horiz-adv-x="582" d="M532 0h-90l64 304h-301l-64 -304h-91l148 700h91l-65 -305h301l65 305h90z" />
<glyph unicode="I" horiz-adv-x="191" d="M141 0h-91l148 700h91z" />
<glyph unicode="J" horiz-adv-x="365" d="M47 -11l20 93q81 0 134 33.5t67 98.5l103 486h92l-103 -486q-24 -112 -106.5 -168.5t-206.5 -56.5z" />
<glyph unicode="K" horiz-adv-x="604" d="M262 332l-64 -62l-57 -270h-91l148 700h91l-61 -286q103 95 303 286h119l-310 -298q26 -49 100.5 -190t113.5 -212h-116z" />
<glyph unicode="L" horiz-adv-x="473" d="M198 700h91l-129 -609h282l-19 -91h-373z" />
<glyph unicode="M" horiz-adv-x="656" d="M606 0h-92l87 411q-43 -75 -125 -213t-117 -198h-63l-67 411l-87 -411h-92l148 700h79l86 -532q47 74 97 159.5t114 195.5t103 177h77z" />
<glyph unicode="N" horiz-adv-x="549" d="M499 0h-77l-179 488l-103 -488h-90l148 700h76l178 -488l103 488h92z" />
<glyph unicode="O" horiz-adv-x="582" d="M488 220l54 253q5 27 5 44q0 52 -31.5 80t-90.5 28q-71 0 -119.5 -38.5t-64.5 -112.5l-54 -254q-4 -17 -4 -35q0 -53 37 -78t89 -25q62 0 113 33t66 105zM632 473l-54 -253q-25 -117 -107.5 -174t-181.5 -57q-84 0 -142 42t-58 129q0 29 7 60l54 254q26 121 103.5 182 t191.5 61q95 0 145 -46t50 -128q0 -30 -8 -70z" />
<glyph unicode="P" horiz-adv-x="561" d="M50 0l148 700h265q77 0 118.5 -41.5t41.5 -106.5q0 -20 -5 -45q-21 -100 -83 -151t-158 -51h-173l-64 -305h-90zM224 396h173q105 0 128 111q3 13 3 25q0 34 -21.5 55.5t-62.5 21.5h-175z" />
<glyph unicode="Q" horiz-adv-x="598" d="M633 473l-54 -253q-16 -75 -63 -132q24 -28 40 -50l-77 -62l-37 48q-62 -35 -153 -35q-84 0 -142 42t-58 129q0 29 7 60l54 254q26 121 103.5 182t191.5 61q95 0 145.5 -46t50.5 -128q0 -30 -8 -70zM488 220l54 253q5 27 5 44q0 52 -31.5 80t-90.5 28q-71 0 -119.5 -38.5 t-64.5 -112.5l-54 -254q-4 -17 -4 -35q0 -53 37 -78t89 -25q45 0 77 12l-76 98l77 63l76 -98q19 36 25 63z" />
<glyph unicode="R" horiz-adv-x="592" d="M50 0l148 700h265q77 0 118.5 -41.5t41.5 -106.5q0 -20 -5 -45q-19 -93 -74 -143.5t-139 -57.5l137 -306h-110l-133 305h-94l-64 -305h-91zM225 396h172q106 0 129 111q3 13 3 25q0 34 -22 55.5t-63 21.5h-174z" />
<glyph unicode="S" horiz-adv-x="599" d="M646 480h-92q3 17 3 32q0 51 -33 78t-86 27q-64 0 -112 -27t-58 -75q-1 -3 -1 -9q0 -15 10 -28t32.5 -25t40.5 -19t51 -19q38 -13 57.5 -21t50.5 -24t46.5 -32t28 -40.5t12.5 -54.5q0 -20 -4 -39q-21 -99 -95 -157t-202 -58q-98 0 -149 58.5t-51 140.5q0 25 4 45h91 q-2 -18 -2 -27q0 -52 32 -88t95 -36q81 0 127 33t58 89q2 10 2 14q0 26 -25 47.5t-50 31.5t-74 27q-42 15 -68.5 26.5t-55.5 30.5t-43 44t-14 57q0 14 3 30l1 1v2q20 93 99.5 144t181.5 51q85 0 140 -46t55 -130q0 -26 -6 -54z" />
<glyph unicode="T" horiz-adv-x="549" d="M317 0h-92l129 609h-175l19 91h449l-19 -91h-182z" />
<glyph unicode="U" horiz-adv-x="582" d="M591 701h90l-103 -481q-25 -117 -107.5 -174t-181.5 -57q-84 0 -142 42t-58 129q0 29 7 60l103 481h91l-103 -481q-4 -17 -4 -35q0 -53 37 -78t89 -25q62 0 113 33t66 105z" />
<glyph unicode="V" horiz-adv-x="632" d="M357 0h-79l-80 700h99l60 -512q162 298 274 512h99z" />
<glyph unicode="W" horiz-adv-x="817" d="M587 0h-78l-8 440l-191 -440h-80l-32 700h96l23 -458q33 79 101 231t100 227h78l4 -466l218 466h97z" />
<glyph unicode="X" horiz-adv-x="696" d="M646 0h-111l-129 280l-244 -280h-112l320 364q-22 50 -73.5 160.5t-80.5 175.5h108l117 -255q132 146 225 255h112l-297 -336z" />
<glyph unicode="Y" horiz-adv-x="663" d="M377 0h-90l73 347l-162 353h109l119 -255l225 255h110l-310 -351z" />
<glyph unicode="Z" horiz-adv-x="605" d="M555 0h-505l13 65l490 544h-354l19 91h485l-14 -65l-491 -544h376z" />
<glyph unicode="[" horiz-adv-x="311" d="M240 -98h-211l172 812h211l-18 -88h-122l-135 -635h122z" />
<glyph unicode="\" horiz-adv-x="438" d="M388 0h-93l-97 700h94z" />
<glyph unicode="]" horiz-adv-x="311" d="M240 -98h-211l19 89h122l135 635h-122l18 88h211z" />
<glyph unicode="^" horiz-adv-x="435" d="M204 457l-43 67l203 162l131 -166l-73 -60l-84 104z" />
<glyph unicode="_" horiz-adv-x="445" d="M391 -15h-345l19 88h345z" />
<glyph unicode="`" horiz-adv-x="290" d="M353 533h-92l-63 167h117z" />
<glyph unicode="a" horiz-adv-x="502" d="M266 -12q-186 5 -186 136q0 23 6 50q40 186 271 186q46 0 75 -3q-12 62 -104 62q-66 0 -128 -35l-40 73q102 52 187 52q101 0 140.5 -33t39.5 -91q0 -33 -14 -95l-62 -293h-88l1 6q-51 -15 -98 -15zM384 96l36 169q-44 6 -82 6q-141 0 -162 -97q-3 -12 -3 -23 q0 -72 112 -72q50 0 99 17z" />
<glyph unicode="b" d="M50 0l148 700h89l-43 -204q51 14 105 14q74 0 120 -30.5t46 -99.5q0 -23 -6 -50l-35 -161q-24 -109 -129 -156q-49 -22 -111 -22q-56 0 -95 13v-4h-89zM385 168l35 162q2 8 2 22q0 68 -92 68q-54 0 -105 -15l-65 -306q40 -18 93 -18q113 0 132 87z" />
<glyph unicode="c" horiz-adv-x="456" d="M405 100l1 -86q-99 -24 -152 -24q-50 0 -84 14q-87 33 -87 124q0 30 7 62l23 110q22 103 87 156.5t152 53.5q53 0 152 -47l-53 -80q-67 37 -118 37q-47 0 -84 -31t-49 -89l-23 -110q-5 -25 -5 -39q0 -49 43 -63q22 -8 59 -8q31 0 131 20z" />
<glyph unicode="d" d="M587 700l-148 -700h-89l1 6q-54 -15 -100 -15q-65 0 -106 22q-64 37 -64 115q0 21 4 41l35 161q14 66 52 107.5t83.5 57t100.5 15.5q49 0 99 -15l43 205h89zM174 168q-2 -7 -2 -21q0 -66 98 -66q49 0 101 18l64 305q-46 16 -98 16q-109 0 -128 -90z" />
<glyph unicode="e" horiz-adv-x="480" d="M404 300l7 30q2 8 2 23q0 35 -24 51t-59 16q-41 0 -77 -22.5t-46 -69.5l-6 -28h203zM408 132l26 -80q-122 -63 -205 -64h-9q-68 0 -106 29.5t-38 87.5q0 18 5 45l38 177q18 85 81.5 134t149.5 49q75 0 114.5 -35.5t39.5 -97.5q0 -27 -5 -48l-24 -117h-292l-14 -63 q-2 -12 -2 -16q0 -27 20.5 -41.5t53.5 -14.5q57 0 167 55z" />
<glyph unicode="f" horiz-adv-x="327" d="M50 0l112 527q19 88 74.5 130.5t122.5 42.5q30 0 65 -5l-19 -91q-50 8 -64 8q-30 0 -55 -20.5t-34 -64.5l-1 -4h129l-19 -90h-129l-92 -433h-90z" />
<glyph unicode="g" d="M456 500h89l-109 -513q-17 -80 -72.5 -120.5t-134.5 -40.5h-9q-84 1 -179 64l60 77q91 -55 144 -55q38 0 66.5 19.5t35.5 54.5l3 17q-49 -15 -107 -15q-68 0 -101 20q-62 39 -62 113q0 18 5 45l35 166q22 108 126 155q50 22 115 22q61 0 94 -13zM264 78q56 0 105 14 l66 309q-43 18 -93 18q-114 0 -133 -87l-35 -164q-2 -8 -2 -23q0 -67 92 -67z" />
<glyph unicode="h" d="M439 0h-89l70 333q2 8 2 21q0 67 -94 67q-51 0 -104 -20l-85 -401h-89l148 700h89l-43 -205q53 15 100 15q61 0 102 -22q68 -37 68 -114q0 -17 -5 -42z" />
<glyph unicode="i" horiz-adv-x="195" d="M222 585q-40 0 -40 32q0 4 2 16q10 47 58 47q39 0 39 -31q0 -4 -2 -16q-10 -48 -57 -48zM142 0h-88l106 501h88z" />
<glyph unicode="j" horiz-adv-x="278" d="M31 -181l-2 84q85 11 97 62l114 536h90l-114 -536q-9 -44 -46.5 -86t-94.5 -56q-10 -4 -44 -4zM305 585q-40 0 -40 33q0 5 2 15q10 47 58 47q39 0 39 -31q0 -4 -2 -16q-10 -48 -57 -48z" />
<glyph unicode="k" horiz-adv-x="525" d="M475 0h-111l-130 238q-3 -2 -18 -14t-34 -26l-42 -198h-90l148 700h90l-81 -382q70 54 243 191h131l-268 -207q116 -221 162 -302z" />
<glyph unicode="l" horiz-adv-x="189" d="M139 0h-89l148 700h89z" />
<glyph unicode="m" horiz-adv-x="708" d="M658 0h-89l70 331q3 15 3 27q0 30 -17.5 45.5t-45.5 15.5q-33 0 -76 -18l-20 -8q0 -12 -3 -27v-1q-1 -1 -1 -2l-77 -363h-89l76 358q1 5 1 13q0 48 -72 48q-50 0 -93 -17l-85 -402h-90l106 501h90l-1 -6q48 15 92 15q77 0 119 -40l28 14q55 26 115 26q62 0 98.5 -34 t36.5 -95q0 -23 -6 -49z" />
<glyph unicode="n" d="M439 0h-89l70 333q2 7 2 21q0 66 -97 66q-52 0 -101 -19l-85 -401h-89l106 501h89l-1 -6q50 15 100 15q61 0 102 -22q68 -37 68 -114q0 -17 -5 -42z" />
<glyph unicode="o" horiz-adv-x="492" d="M507 307l-24 -114q-19 -86 -80.5 -144.5t-159.5 -58.5q-79 0 -118.5 41.5t-39.5 107.5q0 27 6 54l24 114q20 98 82.5 151.5t156.5 53.5q77 0 118.5 -39t41.5 -108q0 -21 -7 -58zM394 193l24 114q4 16 4 35q0 79 -87 79q-108 0 -131 -114l-24 -114v-1l-1 -2q-3 -15 -3 -28 q0 -37 21.5 -59.5t65.5 -22.5q54 0 87 32t44 81z" />
<glyph unicode="p" d="M13 -174l143 674h89l-1 -6q51 15 100 15q63 0 102 -21q68 -36 68 -113q0 -16 -5 -43l-34 -162q-21 -96 -86 -138t-151 -42q-46 0 -98 15l-38 -179h-89zM420 332q2 7 2 21q0 66 -97 66q-55 0 -101 -18l-65 -305q44 -16 99 -16q108 0 128 90z" />
<glyph unicode="q" d="M545 500l-143 -674h-89l38 181q-59 -17 -106 -17q-73 0 -119 30.5t-46 98.5q0 23 6 51l34 162q22 108 126 155q50 22 115 22q61 0 94 -13l1 4h89zM209 332l-34 -162q-3 -14 -3 -24q0 -66 93 -66q53 0 105 15l65 306q-43 18 -93 18q-114 0 -133 -87z" />
<glyph unicode="r" horiz-adv-x="393" d="M50 0l106 501h89l-4 -18q62 29 113 29q37 0 93 -20l-36 -90q-55 19 -76 19q-108 0 -131 -114l-65 -307h-89z" />
<glyph unicode="s" horiz-adv-x="484" d="M88 179h89q-1 -6 -1 -18q0 -37 21.5 -61t65.5 -24t75 19t37 47q1 3 1 8q0 16 -16.5 29t-33 19.5t-49.5 17.5q-28 9 -41.5 14t-35.5 16t-32.5 21.5t-19 27.5t-8.5 38q0 14 3 29q14 61 67.5 106t143.5 45q75 0 109.5 -40t34.5 -101q0 -22 -5 -47h-88q3 12 3 25 q0 31 -18 51.5t-56 20.5q-45 0 -70.5 -19t-30.5 -44q0 -24 89 -54q32 -11 53 -20t44.5 -25t35.5 -38t12 -50q0 -14 -3 -30q-14 -68 -74.5 -111.5t-145.5 -43.5q-80 0 -119 45.5t-39 114.5q0 9 2 27v5z" />
<glyph unicode="t" horiz-adv-x="354" d="M321 80l-20 -91q-101 0 -157.5 41t-56.5 121q0 25 6 55l105 494h88l-42 -199h129l-19 -89h-129l-44 -206q-3 -15 -3 -29q0 -48 38 -72.5t105 -24.5z" />
<glyph unicode="u" d="M156 501h89l-71 -333q-2 -7 -2 -21q0 -66 98 -66q49 0 101 18l85 402h89l-106 -501h-89l1 6q-54 -15 -100 -15q-65 0 -106 22q-64 37 -64 115q0 21 4 41z" />
<glyph unicode="v" horiz-adv-x="531" d="M294 0h-56l-82 501h91l53 -332q31 54 97 163.5t101 168.5h89z" />
<glyph unicode="w" horiz-adv-x="729" d="M515 0h-65l-25 290l-146 -290h-64l-59 501h91l34 -305l155 305h68l25 -306l166 306h90z" />
<glyph unicode="x" horiz-adv-x="514" d="M461 0h-105l-68 168l-137 -168h-101l206 249l-98 252h107l63 -163l135 163h107l-207 -252q63 -157 98 -249z" />
<glyph unicode="y" d="M456 501h89l-109 -514q-17 -80 -72.5 -120.5t-134.5 -40.5h-9q-84 1 -179 64l60 77q91 -55 144 -55q38 0 66.5 19.5t35.5 54.5l3 17q-49 -15 -107 -15q-68 0 -101 20q-62 39 -62 113q0 18 5 45l71 335h89l-71 -333q-2 -8 -2 -23q0 -67 92 -67q56 0 105 14z" />
<glyph unicode="z" horiz-adv-x="468" d="M418 0h-368l13 63l317 349h-224l19 89h349l-13 -63l-318 -349h243z" />
<glyph unicode="{" horiz-adv-x="356" d="M211 391l26 124q17 79 60 125.5t130 91.5l13 -86q-31 -17 -47.5 -28t-37.5 -37t-27 -58l-28 -132q-9 -40 -62 -86q26 -40 26 -73q0 -6 -2 -16l-26 -124q-3 -15 -3 -28q0 -25 11.5 -45t23.5 -29.5t31 -21.5l-53 -87q-55 36 -80 71.5t-25 86.5q0 27 7 58q7 36 14.5 69.5 t7.5 35.5q3 15 3 16q0 17 -59 86l37 30q57 44 60 57z" />
<glyph unicode="|" horiz-adv-x="188" d="M129 -42h-88l157 742h88z" />
<glyph unicode="}" horiz-adv-x="357" d="M311 391q0 -14 35 -57l25 -30q-95 -75 -98 -88l-25 -119q-16 -79 -59.5 -125t-129.5 -88l-16 84q25 14 39 23t32 24t28.5 34t15.5 43l26 124q10 42 61 89q-25 37 -25 66q0 13 2 20l28 132q3 15 3 27q0 24 -12 44t-22.5 29t-30.5 22l51 85q54 -34 79.5 -69t25.5 -86 q0 -29 -7 -60z" />
<glyph unicode="~" horiz-adv-x="537" d="M491 311l48 -64q-82 -65 -138 -65q-38 0 -90 20q-36 18 -72 18q-28 0 -90 -57l-52 62q91 84 161 84q31 0 78 -17l7 -3q46 -18 77 -18q19 0 71 40z" />
<glyph unicode="&#xa2;" horiz-adv-x="456" d="M279 -42h-88l7 36l-28 8q-46 17 -67.5 45t-21.5 74q0 30 9 69l23 110q18 85 71 138t123 69l10 45h88l-10 -46q43 -10 109 -43l-53 -80q-51 25 -76 31l-70 -332q51 6 101 20v-89q-95 -20 -121 -23zM200 300l-23 -110q-6 -26 -6 -45q0 -43 33 -53q4 -4 14 -6l69 325 q-69 -29 -87 -111z" />
<glyph unicode="&#xa3;" horiz-adv-x="549" d="M290 0h-240l15 71q46 22 82.5 63t44.5 81q7 33 7 56q0 3 -0.5 9t-0.5 9h-68l19 89h35q-1 10 -1 30q0 38 7 69q19 91 87.5 146.5t156.5 55.5q67 0 126 -42l-46 -87l-22 15q-42 25 -77 25q-53 0 -89.5 -33t-47.5 -82q-3 -15 -3 -39q0 -30 4 -58h127l-19 -89h-98q0 -5 -1 -7 q0 -39 -7 -73q-14 -61 -61 -120h88q84 0 159 85l57 -56q-102 -118 -234 -118z" />
<glyph unicode="&#xa5;" horiz-adv-x="640" d="M339 307h-128l19 89h86q-14 31 -39.5 86t-46 101t-38.5 88h105l112 -242q35 40 108 120.5t108 121.5h107l-245 -275h89l-19 -89h-129l-7 -33h129l-19 -89h-129l-39 -185h-89l39 185h-128l19 89h128z" />
<glyph unicode="&#xa9;" horiz-adv-x="780" d="M546 319h88q-34 -79 -93 -127t-119 -48q-68 0 -105.5 38t-37.5 102q0 23 6 50q17 78 77 133.5t140 55.5q59 0 97.5 -44t38.5 -117v-12h-81q0 34 -17.5 62.5t-55.5 28.5q-45 0 -77 -32.5t-40 -73.5q-4 -20 -4 -32q0 -34 18 -56t58 -22q34 0 64.5 30t42.5 64zM388 -6 q-117 0 -196 74.5t-79 193.5q0 32 8 74q21 97 86 176t151 121t175 42q123 0 199.5 -74t76.5 -191q0 -32 -8 -74q-21 -97 -87.5 -176.5t-153 -122.5t-172.5 -43zM407 84q98 0 190.5 72t115.5 180q5 23 5 52q0 86 -57 143t-147 57q-102 0 -191.5 -72t-112.5 -180 q-6 -28 -6 -55q0 -88 58.5 -142.5t144.5 -54.5z" />
<glyph unicode="&#xad;" horiz-adv-x="445" d="M124 352h345l-19 -89h-345z" />
<glyph unicode="&#xae;" horiz-adv-x="781" d="M407 371h73q44 0 52 37q1 3 1 9q0 26 -42 26h-68zM596 163h-95l-55 127h-56l-27 -127h-82l77 363h152q49 0 78 -26t29 -67q0 -13 -3 -25q-16 -79 -81 -104q21 -50 63 -141zM390 -4q-118 0 -197.5 74.5t-79.5 193.5q0 32 8 74q32 146 152.5 242t260.5 96q121 0 199 -73 t78 -191q0 -32 -8 -74q-32 -148 -152 -245t-261 -97zM409 86q105 0 193 71.5t111 180.5q6 28 6 56q0 87 -56.5 141t-146.5 54q-105 0 -194 -71.5t-112 -179.5q-6 -28 -6 -55q0 -88 58.5 -142.5t146.5 -54.5z" />
<glyph unicode="&#xb4;" horiz-adv-x="290" d="M256 533h-93l108 167h117z" />
<glyph unicode="&#x2000;" horiz-adv-x="366" />
<glyph unicode="&#x2001;" horiz-adv-x="732" />
<glyph unicode="&#x2002;" horiz-adv-x="366" />
<glyph unicode="&#x2003;" horiz-adv-x="732" />
<glyph unicode="&#x2004;" horiz-adv-x="244" />
<glyph unicode="&#x2005;" horiz-adv-x="183" />
<glyph unicode="&#x2006;" horiz-adv-x="122" />
<glyph unicode="&#x2007;" horiz-adv-x="122" />
<glyph unicode="&#x2008;" horiz-adv-x="91" />
<glyph unicode="&#x2009;" horiz-adv-x="146" />
<glyph unicode="&#x200a;" horiz-adv-x="40" />
<glyph unicode="&#x2010;" horiz-adv-x="445" d="M124 352h345l-19 -89h-345z" />
<glyph unicode="&#x2011;" horiz-adv-x="445" d="M124 352h345l-19 -89h-345z" />
<glyph unicode="&#x2012;" horiz-adv-x="445" d="M124 352h345l-19 -89h-345z" />
<glyph unicode="&#x2013;" horiz-adv-x="492" d="M116 313h392l-19 -89h-392z" />
<glyph unicode="&#x2014;" horiz-adv-x="632" d="M116 313h532l-19 -89h-532z" />
<glyph unicode="&#x2018;" horiz-adv-x="217" d="M196 652l60 48l55 -20l-29 -48q-1 -1 -1 -4v-4q-4 -19 -22.5 -34t-37.5 -15q-16 0 -28 12t-12 29q0 5 1 8q5 21 14 28z" />
<glyph unicode="&#x2019;" horiz-adv-x="219" d="M289 620l-56 -45l-57 22q22 32 32 49l1 5q4 19 22.5 34t37.5 15q16 0 27.5 -12t11.5 -29q0 -5 -1 -8q-4 -19 -18 -31z" />
<glyph unicode="&#x201c;" horiz-adv-x="341" d="M195 652l60 48l55 -20l-28 -48q-1 -1 -1 -4v-4q-4 -19 -22.5 -34t-37.5 -15q-16 0 -28 12t-12 29q0 5 1 8q5 22 13 28zM319 652l60 48l56 -20l-30 -49q0 -5 -1 -7q-4 -19 -22.5 -34t-37.5 -15q-16 0 -28 12.5t-12 28.5q0 5 1 8q5 21 14 28z" />
<glyph unicode="&#x201d;" horiz-adv-x="341" d="M416 623l-60 -48l-55 20l28 48v4q0 3 1 4q4 19 22.5 34t37.5 15q16 0 28 -12t12 -29q0 -5 -1 -8q-5 -22 -13 -28zM292 623l-60 -48l-56 20l30 49q0 5 1 7q4 19 22.5 34t37.5 15q16 0 28 -12.5t12 -28.5q0 -5 -1 -8q-5 -21 -14 -28z" />
<glyph unicode="&#x2022;" horiz-adv-x="328" d="M115 306q9 44 50 78.5t88 34.5q40 0 66 -27t26 -65q0 -7 -2 -21q-10 -49 -51 -82t-88 -33q-41 0 -66.5 24.5t-25.5 64.5q0 12 3 26z" />
<glyph unicode="&#x2026;" horiz-adv-x="483" d="M99 0q-17 0 -28.5 12t-11.5 29q0 5 1 8q4 19 21.5 34t37.5 15q16 0 28 -12t12 -29q0 -5 -1 -8q-4 -19 -22 -34t-37 -15zM241 0q-17 0 -28.5 12t-11.5 29q0 5 1 8q4 19 21.5 34t37.5 15q16 0 28 -12t12 -29q0 -5 -1 -8q-4 -19 -22 -34t-37 -15zM384 0q-16 0 -28 12t-12 29 q0 5 1 8q4 19 22 34t37 15q17 0 28.5 -11.5t11.5 -28.5q0 -6 -1 -9q-4 -19 -22 -34t-37 -15z" />
<glyph unicode="&#x202f;" horiz-adv-x="146" />
<glyph unicode="&#x205f;" horiz-adv-x="183" />
<glyph unicode="&#x20ac;" horiz-adv-x="568" d="M144 248h-42l19 89h42l5 21h-42l18 88h42l10 44q22 104 96.5 154t163.5 50q61 0 110.5 -33.5t69.5 -104.5l-87 -39q-12 45 -43 66.5t-69 21.5q-52 0 -96 -28t-56 -87l-10 -44h214l-18 -88h-214l-5 -21h214l-19 -89h-214l-9 -44q-3 -15 -3 -29q0 -44 31 -65t75 -21 q88 0 148 89l72 -39q-50 -71 -114 -105.5t-125 -34.5q-76 0 -127.5 36t-51.5 114q0 25 6 55z" />
<glyph unicode="&#x2122;" horiz-adv-x="754" d="M295 287h-89l69 327h-95l18 86h282l-18 -86h-98zM765 287h-88l28 134l-78 -134h-61l-22 134l-28 -134h-89l87 413h75l43 -252q42 68 147 252h73z" />
<glyph unicode="&#x25fc;" horiz-adv-x="500" d="M0 500h500v-500h-500v500z" />
</font>
</defs>
</svg>
